<svg xmlns="http://www.w3.org/2000/svg" viewBox="0 0 271.18 279.74"><defs><style>.cls-1{fill:#656565;}.cls-2{fill:#ef8620;}.cls-3{fill:#ee8d2f;}.cls-4{fill:#676767;}.cls-5{fill:#fbfbf9;}</style></defs><g id="Calque_2" data-name="Calque 2"><g id="Calque_1-2" data-name="Calque 1"><path class="cls-1" d="M59.83,11.54,86.5,16.35c2,.36,4,.72,5.94,1,1.37.2,1.69.63,1.17,2.08-2.1,5.85-2,5.91-8.4,4.85-4.9-.82-9.83-1.54-14.67-2.67-2.53-.59-3,.25-3.34,2.46-4.92,27.6-10,55.17-14.93,82.75-5.59,31-11.09,62.07-16.82,93.07-.55,2.93.68,3.08,2.7,3.45q41.23,7.38,82.45,14.84c16.76,3,33.54,6,50.27,9.14,2.57.49,3-.51,3.36-2.5,1.13-6.57,2.38-13.12,3.48-19.69a3.45,3.45,0,0,1,2.58-3.09c1.78-.63,2.24.5,3,1.43a10.55,10.55,0,0,0,7.13,3.74c1.53.17,2,.76,1.73,2.25-1.79,9.78-3.44,19.59-5.34,29.35-.57,2.94-3.16,4.07-6.85,3.41-9.48-1.68-19-3.42-28.44-5.13l-109-19.61q-9.06-1.63-18.1-3.32c-4.88-.92-6.26-2.86-5.38-7.74q8.81-48.88,17.65-97.76,8.13-45.12,16.18-90.26C53.84,13,55.2,11.39,59.83,11.54Z"/><path class="cls-2" d="M184.15,194.12c-2.06.13-3.75,1.34-5.61,2a64.82,64.82,0,0,1-87.44-51.8c-5.91-41.17,29.43-77.69,70.77-73.16,31,3.41,55.13,27.33,58,58a63.67,63.67,0,0,1-12.48,45.15,28.14,28.14,0,0,0-1.45,2.42c-2.48,2.4-4.94,4.82-7.45,7.2C194.19,188,188.94,190.73,184.15,194.12ZM205,135.55a49.65,49.65,0,1,0-49.22,49.65A49.43,49.43,0,0,0,205,135.55Z"/><path class="cls-1" d="M216.4,197.06c4.52-2.77,6-2.51,9.31,1.69q21.67,27.74,43.34,55.49c3,3.9,2.85,5.79-.75,9.23a120.86,120.86,0,0,0-15.14,12c-5.4,2.86-6.3,2.62-10.19-2.36q-21.09-27-42.2-53.91c-3.76-4.81-3.71-6.62.38-10.13C206.21,205.06,211.65,201.5,216.4,197.06Z"/><path class="cls-1" d="M153.39,18.23c-.82,3.14,1.12,4.31,4.05,4.72,1.15.16,2.29.41,3.43.63,10,1.85,14.38,8.2,12.69,18.26-1.25,7.42-1.35,7.48-8.72,6.15L99.27,36.21c-4.73-.85-5.34-1.63-4.5-6.29a41.14,41.14,0,0,1,1.69-7.07c2-5.38,8.2-8.93,14-8.32,1.06.1,2.11.25,3.15.44,4.81.86,4.81.87,6.47-3.51a10.23,10.23,0,0,1,11.36-6.62c4.49.76,9,1.54,13.42,2.46C150.32,8.42,153.44,12.42,153.39,18.23ZM143,15.9c2.21.35,3.57.28,3.81-1.38s-.9-2.12-2.33-2.36c-4-.67-7.91-1.4-11.85-2.16-1.44-.28-2.6-.09-2.92,1.53s.74,2.13,2,2.36C135.76,14.65,139.83,15.34,143,15.9Z"/><path class="cls-1" d="M212.83,93.78c-2.82-3.68-5.31-7.23-8.69-9.62-3.75-2.64-3.76-5.62-2.94-9.53,1.79-8.48,3.17-17,4.79-25.57.38-2,.2-3-2.23-3.37-6.27-.94-12.47-2.35-18.74-3.31-2.32-.36-2.63-1.29-2.35-3.37.72-5.27.62-5.24,5.83-4.28q13.58,2.49,27.18,4.91c5.28.94,6.69,2.82,5.76,8q-3.88,21.87-7.82,43.72A21,21,0,0,1,212.83,93.78Z"/><path class="cls-3" d="M16.79,183.73C2.17,158.09-2.93,131.31,1.6,102.88c4.79-30.19,19.32-55,43-75.25.16,2.8-.27,4.42-1.94,5.95C20.05,54.39,6.74,80,3.73,110.7a115.53,115.53,0,0,0,13.09,66.53C17.91,179.31,17.22,181.05,16.79,183.73Z"/><path class="cls-3" d="M226.25,58.58a72.2,72.2,0,0,1,7,12.86q25.22,58.59-6.7,113.88c-1.09,1.89-1.9,4.92-5.64,3.25,3.11-5.39,6.49-10.6,9.09-16.26a118.44,118.44,0,0,0,10.11-65.94,117.11,117.11,0,0,0-13.89-41.93A5.17,5.17,0,0,1,226.25,58.58Z"/><path class="cls-4" d="M77.29,44.64c10,1.8,19.81,3.53,29.59,5.3,7.7,1.39,15.39,2.82,23.09,4.23,3.05.56,4.59,2.22,4.16,4.48s-2.35,3.26-5.47,2.7L77.77,52.21c-.52-.1-1-.21-1.55-.33-2.35-.56-3.43-2.07-3-4.43S75.41,44.52,77.29,44.64Z"/><path class="cls-4" d="M125.61,70.9l-8.63,5a2.93,2.93,0,0,1-2.16,0q-20.29-3.65-40.6-7.27c-2.51-.45-4.15-1.8-3.63-4.59.46-2.5,2.38-3.15,4.58-2.75q25.14,4.51,50.25,9.14S125.5,70.62,125.61,70.9Z"/><path class="cls-4" d="M103.76,184.78l-27.73-5c-6.87-1.23-13.73-2.5-20.6-3.71-2.5-.44-4.64-1.25-4.39-4.32.2-2.47,2.35-3.56,5.62-3q19,3.42,38.06,6.85a5.13,5.13,0,0,1,3.63,2.2C99.83,180,101.55,182,103.76,184.78Z"/><path class="cls-1" d="M184.15,194.12c4.79-3.39,10-6.12,14.34-10.19,2.51-2.38,5-4.8,7.45-7.2.86,1,1.66,2.14,2.6,3.1,2.65,2.72,3.48,5.62,1.06,8.92-2,.2-3.11,1.79-4.41,2.91-3.46,3-7.77,5-10.59,8.72C189.61,201.71,188.33,200.94,184.15,194.12Z"/><path class="cls-3" d="M143,242.15c-29,5-56.28.12-82.76-14.79a20.76,20.76,0,0,1,9.85,1.69,117,117,0,0,0,60.68,11.58A32.36,32.36,0,0,1,143,242.15Z"/><path class="cls-4" d="M90.76,165.45c-11.67-2.14-22.76-4.17-33.85-6.23-2.33-.43-3.59-1.91-3.11-4.29s2.33-3.2,4.58-2.8c9.36,1.64,18.7,3.38,28.06,5a2.06,2.06,0,0,1,1.74,1.53C89,160.72,89.75,162.78,90.76,165.45Z"/><path class="cls-4" d="M119.55,201.09c.4-1-.52-3.06,1.3-3.11,1.48,0,3,.84,2.77,3.29-.31,3.07,1.77,5.46,4.9,6.07,8.29,1.59,16.6,3.13,24.94,4.52,3.9.65,5.93-.43,7.24-4,.83-2.27,2.65-1.94,3.83-1.61,1.59.45.3,2,0,2.91A9.88,9.88,0,0,1,153.47,216c-8.43-1.47-16.86-3-25.25-4.6C122.69,210.33,119.51,206.45,119.55,201.09Z"/><path class="cls-2" d="M194.6,200.38c2.82-3.76,7.13-5.73,10.59-8.72,1.3-1.12,2.45-2.71,4.41-2.91l6.79,8.31c-4.74,4.44-10.18,8-15.24,12Q197.88,204.73,194.6,200.38Z"/><path class="cls-4" d="M92.07,102.78c-2.44,7.12-2.43,7.1-9.19,5.8q-7.77-1.48-15.56-2.85c-2.54-.44-4.17-1.59-3.81-4.4.29-2.24,2.32-3.34,5.08-2.84q10.43,1.88,20.85,3.78Z"/><path class="cls-4" d="M188.81,72.69c-2.13-.76-4-1.44-5.17-3.22-1.1-1.61-2.84-2.13-4.64-2.45-8-1.44-16-2.84-24-4.3a5.26,5.26,0,0,0-4.52.86c-1.78,1.55-3.8,1.55-5.91,1.71.65-4.78,6.47-7.45,11.38-6.52,6.12,1.17,12.26,2.25,18.38,3.39,2.5.46,5,.82,7.46,1.48C186.05,64.79,188.36,67.76,188.81,72.69Z"/><path class="cls-4" d="M65,114.91c6.66,1.19,13.22,2.39,19.79,3.51,1.33.23,1.34.9,1.24,2-.53,5.7-.53,5.7-6.21,4.62-5.19-1-10.4-1.91-15.62-2.82-2.36-.41-3.68-1.81-3.44-4.14S62.81,114.83,65,114.91Z"/><path class="cls-3" d="M202.54,30.9a11.86,11.86,0,0,1-7-2.38,113.61,113.61,0,0,0-36.09-19.4c-2.59-.85-4.18-2.51-5.78-4.68C166.39,6,196.7,22.36,202.54,30.9Z"/><path class="cls-2" d="M253.16,275.49a120.86,120.86,0,0,1,15.14-12c2.2,2.65,3.86,5.64,1.9,8.94-2.21,3.68-5.5,6.52-9.86,7.24C257.13,280.18,254.72,278.32,253.16,275.49Z"/><path class="cls-3" d="M77.58,8.43A118.63,118.63,0,0,1,122,0c-2.42,2.89-5.39,3.26-8.63,3.46A102.35,102.35,0,0,0,85.48,8.89C83,9.77,80.77,8.94,77.58,8.43Z"/><path class="cls-5" d="M143,15.9c-3.2-.56-7.27-1.25-11.32-2-1.23-.23-2.27-.87-2-2.36s1.48-1.81,2.92-1.53c3.94.76,7.89,1.49,11.85,2.16,1.43.24,2.56.77,2.33,2.36S145.24,16.25,143,15.9Z"/><path class="cls-2" d="M150.48,152.76a4.21,4.21,0,0,1-4.07-3c-3-7.32-6.15-14.62-9.18-21.95-1.22-3-.5-5.31,1.76-6.22s4.4.12,5.64,3q2.77,6.57,5.44,13.19c1.39,3.46,1.51,3.49,3.83.81q9.73-11.26,19.54-22.49c2.18-2.5,4.34-2.82,6.28-.93,2.12,2.07,1.54,4.14-.2,6.15L154,150.84A4.53,4.53,0,0,1,150.48,152.76Z"/><path class="cls-4" d="M167.73,116.89c-1,2.46-2.72,3.28-5.47,2.7-6.32-1.34-12.68-2.41-19-3.59-5.93-1.1-8.48.67-9.55,6.63q-1.91,10.47-3.78,20.93c-1.2,6.65.32,8.75,7.12,9.95,7.3,1.3,14.58,2.63,21.87,3.94,4.5.81,7.16-.88,8.1-5.35.83-3.93,1.53-7.89,2.13-11.87.43-2.87,2.67-4.18,4.44-6a100.27,100.27,0,0,1-3.12,20.26c-1.26,5.17-6.11,8-11.58,7-8.34-1.41-16.67-2.92-25-4.46a10.18,10.18,0,0,1-8.3-12q2.1-11.88,4.28-23.74c1.37-7.5,5.87-10.66,13.37-9.36s15,2.66,22.5,4A2.79,2.79,0,0,1,167.73,116.89Z"/><path class="cls-4" d="M184.58,167.22c3.08-17,6.12-33.82,9.23-51C202.85,130.85,199.42,155.53,184.58,167.22Z"/><path class="cls-4" d="M174,108.81c-6.12-1.09-12.68-2.25-19.24-3.43-2.7-.49-5.41-1-8.1-1.55-3.38-.71-5.55-2.94-7-6-.63-1.34-.82-2.51,1.1-3.25,1.76-.68,2.11,0,2.57,1.48a5.59,5.59,0,0,0,4.61,3.91q12.65,2.33,25.32,4.54a5.75,5.75,0,0,0,6.28-2.71c.67-1.06,1.19-1.66,2.43-.68s1.88,1.65.81,3.1A10.8,10.8,0,0,1,174,108.81Z"/><path class="cls-4" d="M134.33,165.84q10.46,1.86,20.91,3.73c2.39.43,4.76,1,7.14,1.43a8.44,8.44,0,0,1,5.12,3.49c.53.71,2,1.65.52,2.56-.9.56-2.29,1.43-3.4.06-1.67-2.07-4-2.5-6.46-2.92C151.08,173,144,171.7,137,170.35c-1.81-.35-3.57-.69-5.27.2-1.85,1-3.11-.42-3.68-1.49-.8-1.47,1.13-1.64,2-2.13A9.53,9.53,0,0,1,134.33,165.84Z"/></g></g></svg>